# xmcd
#
# Track frame offsets:
#	150
#	19014
#	38521
#	52856
#	64878
#	77351
#	93055
#	110940
#	129726
#	143876
#	163044
#	179142
#
# Disc length: 2548 seconds
#
# Revision: 1
# Processed by: cddbd v1.4PL0 Copyright (c) Steve Scherf et al.
# Submitted via: audiograbber 1.81.01
#
DISCID=9c09f20c
DTITLE=Johnny Sax - I Grandi Successi Originali cd1
DYEAR=1900
DGENRE=Pop
TTITLE0=A Whiter Shade Of (Senza Luce)
TTITLE1=Love is in the air
TTITLE2=Estrellita
TTITLE3=Green leaves of summer
TTITLE4=Manha de carneval (Samba di Orfeo)
TTITLE5=Opher days sor love
TTITLE6=Penptation
TTITLE7=Love me tender
TTITLE8=Theme from a summe place (Scandalo al sole)
TTITLE9=Unchained melody 
TTITLE10=Une belle histoire (Un'estate fa)
TTITLE11=A blue shadow
EXTD=
EXTT0=
EXTT1=
EXTT2=
EXTT3=
EXTT4=
EXTT5=
EXTT6=
EXTT7=
EXTT8=
EXTT9=
EXTT10=
EXTT11=
PLAYORDER=
